<svg xmlns="http://www.w3.org/2000/svg" viewBox="0 0 64 64" role="img" aria-labelledby="title">
  <title>MathLab favicon</title>
  <g transform="translate(32 32)">
    <path d="M0 -16L4.8 -4.8L16 0L4.8 4.8L0 16L-4.8 4.8L-16 0L-4.8 -4.8Z" fill="#fff6cd"/>

    <path d="M0 -14.7L4.2 -4.2L4.2 4.2L0 0Z" fill="#ffd84a"/>
    <path d="M0 0L4.2 4.2L0 14.7L-4.2 4.2L0 0Z" fill="#7bd38c"/>
    <path d="M0 0L-4.2 4.2L-14.7 0L-4.2 -4.2L0 0Z" fill="#84c7ff"/>
    <path d="M0 0L-4.2 -4.2L0 -14.7L4.2 -4.2L0 0Z" fill="#ff9a45"/>

    <path d="M-4.8 4c0.9 1.6 2.6 2.6 4.8 2.6s3.9 -1 4.8 -2.6" fill="none" stroke="#5a3b21" stroke-width="2.2" stroke-linecap="round"/>

    <text x="-8.5" y="0" text-anchor="middle" dominant-baseline="middle" font-family="Arial, sans-serif" font-size="8" fill="#5a3b21" font-weight="800">+</text>
    <text x="8.5" y="0" text-anchor="middle" dominant-baseline="middle" font-family="Arial, sans-serif" font-size="8" fill="#5a3b21" font-weight="800">−</text>
    <text x="0" y="-8.5" text-anchor="middle" dominant-baseline="middle" font-family="Arial, sans-serif" font-size="8" fill="#5a3b21" font-weight="800">×</text>
    <text x="0" y="8.5" text-anchor="middle" dominant-baseline="middle" font-family="Arial, sans-serif" font-size="8" fill="#5a3b21" font-weight="800">÷</text>
  </g>
</svg>